<?xml version="1.0" encoding="utf-8"?>
<!-- Generator: Adobe Illustrator 18.0.0, SVG Export Plug-In . SVG Version: 6.00 Build 0)  -->
<!DOCTYPE svg PUBLIC "-//W3C//DTD SVG 1.1//EN" "http://www.w3.org/Graphics/SVG/1.1/DTD/svg11.dtd">
<svg version="1.1" id="Layer_1" xmlns="http://www.w3.org/2000/svg" xmlns:xlink="http://www.w3.org/1999/xlink" x="0px" y="0px"
	 viewBox="0 0 50.7 46.7" enable-background="new 0 0 50.7 46.7" xml:space="preserve">
<g>
	<g>
		<polygon fill="#3944C9" points="39.6,35.1 25.4,42.5 11.1,35.1 25.3,27.8 		"/>
	</g>
	<g>
		<polygon fill="#3944C9" points="39.6,35.1 39.5,37.8 25.4,45.1 25.4,42.5 		"/>
	</g>
	<g>
		<polygon fill="#4419DD" points="25.4,42.5 25.4,45.1 11.1,37.8 11.1,35.1 		"/>
	</g>
</g>
<g>
	<g>
		<polygon fill="#3944C9" points="39.3,12.6 25.2,20.8 11,12.6 25.1,4.5 		"/>
	</g>
	<g opacity="0.13">
		<polygon fill="#6AB2D2" points="39.3,12.6 39.2,28.9 25.2,37.1 25.2,20.8 		"/>
	</g>
	<g opacity="0.21">
		<polygon fill="#62A5C3" points="25.2,20.8 25.2,37.1 11,28.9 11,12.6 		"/>
	</g>
</g>
<text transform="matrix(1 0 0 1 39.6662 5.4938)" font-family="'Fugue-Regular'" font-size="5.3057">Top</text>
<text transform="matrix(1 0 0 1 35.1667 29.7192)" font-family="'Fugue-Regular'" font-size="5.3416">Match</text>
<g>
	<g>
		<path fill="#E247DB" d="M33.5,29.5c-1.8,1.2-3.4,3.6-3.5,5.8c0,0.5,0.8,0.6,0.9,0.1c0.3-1,0.5-1.9,0.9-2.9c0.5-1,1.3-1.9,2-2.7
			C33.9,29.7,33.7,29.4,33.5,29.5L33.5,29.5z"/>
	</g>
</g>
<g>
	<g>
		<path fill="#E247DB" d="M29.3,33.7c-0.1,0.9,0.3,1.7,0.7,2.4c0.2,0.3,0.6,0.2,0.7-0.1c0-0.1,0-0.2,0-0.3c0-0.4-0.6-0.5-0.7-0.1
			c0,0.1,0,0.2,0,0.3c0.2-0.1,0.4-0.2,0.6-0.3c-0.6-0.5-0.8-1.3-0.9-2.1C29.6,33.4,29.3,33.5,29.3,33.7L29.3,33.7z"/>
	</g>
</g>
<g>
	<g>
		<path fill="#E247DB" d="M31.6,34.7c-0.6,0.1-1.1,0.6-1.6,1c-0.4,0.3,0.2,0.8,0.5,0.5c0.4-0.4,1-0.8,1.2-1.3
			C31.7,34.8,31.7,34.6,31.6,34.7L31.6,34.7z"/>
	</g>
</g>
<g>
	<g>
		<path fill="#E247DB" d="M39,3.4c-3.4,1-7,4.2-7.1,8c0,0.5,0.8,0.6,0.9,0.1c0.4-1.3,0.6-2.5,1.4-3.7c1.2-1.9,3.1-3,5-3.9
			C39.5,3.7,39.3,3.3,39,3.4L39,3.4z"/>
	</g>
</g>
<g>
	<g>
		<path fill="#E247DB" d="M31.3,9.7c-0.1,0.9,0.3,1.7,0.7,2.4c0.2,0.3,0.6,0.2,0.7-0.1c0-0.1,0-0.2,0-0.3c0-0.4-0.6-0.5-0.7-0.1
			c0,0.1,0,0.2,0,0.3c0.2-0.1,0.4-0.2,0.6-0.3c-0.6-0.5-0.8-1.3-0.9-2.1C31.6,9.4,31.3,9.5,31.3,9.7L31.3,9.7z"/>
	</g>
</g>
<g>
	<g>
		<path fill="#E247DB" d="M33.6,10.7c-0.6,0.1-1.1,0.6-1.6,1c-0.4,0.3,0.2,0.8,0.5,0.5c0.4-0.4,1-0.8,1.2-1.3
			C33.7,10.8,33.7,10.6,33.6,10.7L33.6,10.7z"/>
	</g>
</g>
</svg>
