<?xml version="1.0" encoding="utf-8"?>
<!-- Generator: Adobe Illustrator 18.0.0, SVG Export Plug-In . SVG Version: 6.00 Build 0)  -->
<!DOCTYPE svg PUBLIC "-//W3C//DTD SVG 1.1//EN" "http://www.w3.org/Graphics/SVG/1.1/DTD/svg11.dtd">
<svg version="1.1" id="Layer_1" xmlns="http://www.w3.org/2000/svg" xmlns:xlink="http://www.w3.org/1999/xlink" x="0px" y="0px"
	 viewBox="0 0 400 300" enable-background="new 0 0 400 300" xml:space="preserve">
<g>
	<g>
		<polygon fill="#3241AD" points="201.8,263.8 200.1,274 108.9,221 108.9,212.6 110.7,211.6 		"/>
	</g>
	<polygon fill="#3944C9" points="199.4,160.6 108.9,212.6 200.1,265.3 200.1,274 290,221 290.7,212.6 	"/>
</g>
<g>
	<g>
		<polygon fill="#3944C9" points="289.6,80.9 199,133.6 107.8,80.9 198.4,28.9 		"/>
	</g>
	<g opacity="0.13">
		<polygon fill="#6AB2D2" points="289.6,80.9 289,185.7 199,238.3 199,133.6 		"/>
	</g>
	<g opacity="0.21">
		<polygon fill="#62A5C3" points="199,133.6 199,238.3 107.8,185.7 107.8,80.9 		"/>
	</g>
</g>
<g enable-background="new    ">
	<path fill="#222222" d="M276,134.4h5.1v25.1h-3.6v-20.2l-7.1,14.7h-4.1l-7.1-14.7v20.2h-3.6v-25.1h5.1l7.5,16L276,134.4z"/>
	<path fill="#222222" d="M301.3,159.4h-3.1l-0.3-1.4l-0.2-0.2l-0.2,0.2c-1,1-2.7,1.7-4.5,1.7c-4.5,0-8.2-3.4-8.2-8.4
		s3.8-8.4,8.2-8.4c1.7,0,3.4,0.7,4.5,1.7l0.2,0.2l0.2-0.2l0.3-1.4h3.1V159.4z M293.3,146c-3.3,0-5,2.4-5,5.3s1.8,5.3,5,5.3
		c2.9,0,5-2.4,5-5.3S296.2,146,293.3,146z"/>
	<path fill="#222222" d="M303.8,143.3h3.1v-3.4l2.7-3.4h0.7v6.9h3.5v3.1h-3.5v8.2c0,1,0.7,1.7,1.8,1.7l2.1-0.3v3.1l-1.9,0.3
		c-3.4,0-5.3-1.7-5.3-4.8v-8.2h-3.1V143.3z"/>
	<path fill="#222222" d="M324,156.7c2.1,0,3.6-1.4,4.2-2.7l2.7,1.7c-1.3,2.4-3.8,4.1-7,4.1c-4.3,0-8.2-3.4-8.2-8.4s3.9-8.4,8.2-8.4
		c3.3,0,5.7,1.7,7,4.1l-2.7,1.7c-0.5-1.4-2.1-2.7-4.2-2.7c-3.3,0-5,2.4-5,5.3S320.7,156.7,324,156.7z"/>
	<path fill="#222222" d="M333.4,133.3h3.4v11.3l0.2,0.2l0.2-0.2c0.7-1,2.4-1.7,3.8-1.7c4.1,0,6.5,2.7,6.5,6.5v10h-3.4v-10
		c-0.1-2.2-1.2-3.4-3.4-3.4c-2,0-3.7,1.6-3.8,3.6v9.7h-3.4V133.3z"/>
</g>
<g>
	<g>
		<g>
			<path fill="#E247DB" d="M299.7,122.3c-5.8-22-25.7-45.7-50.1-47.1c-3.2-0.1-4,5-0.8,5.8c8.3,2.8,15.9,4.3,23.5,9.7
				c12,8.1,18.7,20.5,24.1,32.8C297.7,125.5,300.3,124.3,299.7,122.3L299.7,122.3z"/>
		</g>
	</g>
	<g>
		<g>
			<path fill="#E247DB" d="M260.7,71.7c-5.8-0.8-11,1.6-15.5,4.1c-2,1.2-1.4,3.8,0.5,4.5c0.6,0,1.3,0,1.9,0.1
				c2.6,0.1,3.3-3.8,0.8-4.5c-0.6,0-1.3,0-1.9-0.1c0.6,1.3,1.2,2.6,1.8,3.9c3.3-3.8,8.5-4.9,13.7-5.4
				C262.5,73.7,262,71.8,260.7,71.7L260.7,71.7z"/>
		</g>
	</g>
	<g>
		<g>
			<path fill="#E247DB" d="M253.8,86.3c-0.5-3.9-3.7-7.2-6.1-10.5c-1.9-2.6-5.2,1.1-3.3,3.1c2.5,2.6,5,6.6,8.1,7.9
				C253.2,86.9,254.5,87,253.8,86.3L253.8,86.3z"/>
		</g>
	</g>
</g>
<g>
	<g>
		<g>
			<path fill="#E247DB" d="M298,170.8c-6.8,19.1-27.7,39.2-52.1,39.3c-3.2-0.1-3.8-4.6-0.6-5.1c8.4-2.1,16.1-3.1,23.9-7.5
				c12.3-6.6,19.6-17.2,25.6-27.9C296.1,167.9,298.7,169.1,298,170.8L298,170.8z"/>
		</g>
	</g>
	<g>
		<g>
			<path fill="#E247DB" d="M256.7,213.7c-5.8,0.5-10.9-1.9-15.3-4.2c-1.9-1.2-1.2-3.4,0.7-4c0.6,0,1.3,0,1.9,0c2.6,0,3.2,3.5,0.6,4
				c-0.6,0-1.3,0-1.9,0c0.7-1.1,1.3-2.2,2-3.4c3.2,3.5,8.3,4.7,13.4,5.3C258.7,212,258,213.7,256.7,213.7L256.7,213.7z"/>
		</g>
	</g>
	<g>
		<g>
			<path fill="#E247DB" d="M250.5,200.5c-0.7,3.4-4,6.2-6.6,8.9c-2,2.2-5.1-1.2-3.2-2.9c2.6-2.2,5.2-5.6,8.5-6.6
				C249.9,199.9,251.2,200,250.5,200.5L250.5,200.5z"/>
		</g>
	</g>
</g>
</svg>
