<?xml version="1.0" encoding="utf-8"?>
<!-- Generator: Adobe Illustrator 18.0.0, SVG Export Plug-In . SVG Version: 6.00 Build 0)  -->
<!DOCTYPE svg PUBLIC "-//W3C//DTD SVG 1.1//EN" "http://www.w3.org/Graphics/SVG/1.1/DTD/svg11.dtd">
<svg version="1.1" xmlns="http://www.w3.org/2000/svg" xmlns:xlink="http://www.w3.org/1999/xlink" x="0px" y="0px"
	 viewBox="0 0 2048 2048" enable-background="new 0 0 2048 2048" xml:space="preserve">
<g id="Layer_2">
	<rect fill="#1A2428" width="2048" height="2048"/>
</g>
<g id="Layer_1">
	<g>
		<g>
			<rect x="0" y="0" fill="#111111" stroke="#000000" stroke-miterlimit="10" width="131" height="131"/>
			<rect x="136.9" y="0" fill="#111111" stroke="#000000" stroke-miterlimit="10" width="131" height="131"/>
			<rect x="273.9" y="0" fill="#111111" stroke="#000000" stroke-miterlimit="10" width="131" height="131"/>
			<rect x="410.8" y="0" fill="#111111" stroke="#000000" stroke-miterlimit="10" width="131" height="131"/>
			<rect x="684.6" y="0" fill="#111111" stroke="#000000" stroke-miterlimit="10" width="131" height="131"/>
			<rect x="958.5" y="0" fill="#111111" stroke="#000000" stroke-miterlimit="10" width="131" height="131"/>
			<rect x="547.7" y="0" fill="#111111" stroke="#000000" stroke-miterlimit="10" width="131" height="131"/>
			<rect x="821.6" y="0" fill="#111111" stroke="#000000" stroke-miterlimit="10" width="131" height="131"/>
			<rect x="1095.4" y="0" fill="#111111" stroke="#000000" stroke-miterlimit="10" width="131" height="131"/>
			<rect x="1232.3" y="0" fill="#111111" stroke="#000000" stroke-miterlimit="10" width="131" height="131"/>
			<rect x="1369.3" y="0" fill="#111111" stroke="#000000" stroke-miterlimit="10" width="131" height="131"/>
			<rect x="1506.2" y="0" fill="#111111" stroke="#000000" stroke-miterlimit="10" width="131" height="131"/>
			<rect x="1643.1" y="0" fill="#111111" stroke="#000000" stroke-miterlimit="10" width="131" height="131"/>
			<rect x="1780.1" y="0" fill="#111111" stroke="#000000" stroke-miterlimit="10" width="131" height="131"/>
			<rect x="1917" y="0" fill="#111111" stroke="#000000" stroke-miterlimit="10" width="131" height="131"/>
		</g>
		<g>
			<rect x="0" y="136.9" fill="#111111" stroke="#000000" stroke-miterlimit="10" width="131" height="131"/>
			<rect x="136.9" y="136.9" fill="#111111" stroke="#000000" stroke-miterlimit="10" width="131" height="131"/>
			<rect x="273.9" y="136.9" fill="#111111" stroke="#000000" stroke-miterlimit="10" width="131" height="131"/>
			<rect x="410.8" y="136.9" fill="#111111" stroke="#000000" stroke-miterlimit="10" width="131" height="131"/>
			<rect x="684.6" y="136.9" fill="#111111" stroke="#000000" stroke-miterlimit="10" width="131" height="131"/>
			<rect x="958.5" y="136.9" fill="#111111" stroke="#000000" stroke-miterlimit="10" width="131" height="131"/>
			<rect x="547.7" y="136.9" fill="#111111" stroke="#000000" stroke-miterlimit="10" width="131" height="131"/>
			<rect x="821.6" y="136.9" fill="#111111" stroke="#000000" stroke-miterlimit="10" width="131" height="131"/>
			<rect x="1095.4" y="136.9" fill="#111111" stroke="#000000" stroke-miterlimit="10" width="131" height="131"/>
			<rect x="1232.3" y="136.9" fill="#111111" stroke="#000000" stroke-miterlimit="10" width="131" height="131"/>
			<rect x="1369.3" y="136.9" fill="#111111" stroke="#000000" stroke-miterlimit="10" width="131" height="131"/>
			<rect x="1506.2" y="136.9" fill="#111111" stroke="#000000" stroke-miterlimit="10" width="131" height="131"/>
			<rect x="1643.1" y="136.9" fill="#111111" stroke="#000000" stroke-miterlimit="10" width="131" height="131"/>
			<rect x="1780.1" y="136.9" fill="#111111" stroke="#000000" stroke-miterlimit="10" width="131" height="131"/>
			<rect x="1917" y="136.9" fill="#111111" stroke="#000000" stroke-miterlimit="10" width="131" height="131"/>
		</g>
		<g>
			<rect x="0" y="273.9" fill="#111111" stroke="#000000" stroke-miterlimit="10" width="131" height="131"/>
			<rect x="136.9" y="273.9" fill="#111111" stroke="#000000" stroke-miterlimit="10" width="131" height="131"/>
			<rect x="273.9" y="273.9" fill="#111111" stroke="#000000" stroke-miterlimit="10" width="131" height="131"/>
			<rect x="410.8" y="273.9" fill="#111111" stroke="#000000" stroke-miterlimit="10" width="131" height="131"/>
			<rect x="684.6" y="273.9" fill="#111111" stroke="#000000" stroke-miterlimit="10" width="131" height="131"/>
			<rect x="958.5" y="273.9" fill="#111111" stroke="#000000" stroke-miterlimit="10" width="131" height="131"/>
			<rect x="547.7" y="273.9" fill="#111111" stroke="#000000" stroke-miterlimit="10" width="131" height="131"/>
			<rect x="821.6" y="273.9" fill="#111111" stroke="#000000" stroke-miterlimit="10" width="131" height="131"/>
			<rect x="1095.4" y="273.9" fill="#111111" stroke="#000000" stroke-miterlimit="10" width="131" height="131"/>
			<rect x="1232.3" y="273.9" fill="#111111" stroke="#000000" stroke-miterlimit="10" width="131" height="131"/>
			<rect x="1369.3" y="273.9" fill="#111111" stroke="#000000" stroke-miterlimit="10" width="131" height="131"/>
			<rect x="1506.2" y="273.9" fill="#111111" stroke="#000000" stroke-miterlimit="10" width="131" height="131"/>
			<rect x="1643.1" y="273.9" fill="#111111" stroke="#000000" stroke-miterlimit="10" width="131" height="131"/>
			<rect x="1780.1" y="273.9" fill="#111111" stroke="#000000" stroke-miterlimit="10" width="131" height="131"/>
			<rect x="1917" y="273.9" fill="#111111" stroke="#000000" stroke-miterlimit="10" width="131" height="131"/>
		</g>
		<g>
			<rect x="0" y="410.8" fill="#111111" stroke="#000000" stroke-miterlimit="10" width="131" height="131"/>
			<rect x="136.9" y="410.8" fill="#111111" stroke="#000000" stroke-miterlimit="10" width="131" height="131"/>
			<rect x="273.9" y="410.8" fill="#111111" stroke="#000000" stroke-miterlimit="10" width="131" height="131"/>
			<rect x="410.8" y="410.8" fill="#111111" stroke="#000000" stroke-miterlimit="10" width="131" height="131"/>
			<rect x="684.6" y="410.8" fill="#111111" stroke="#000000" stroke-miterlimit="10" width="131" height="131"/>
			<rect x="958.5" y="410.8" fill="#111111" stroke="#000000" stroke-miterlimit="10" width="131" height="131"/>
			<rect x="547.7" y="410.8" fill="#111111" stroke="#000000" stroke-miterlimit="10" width="131" height="131"/>
			<rect x="821.6" y="410.8" fill="#111111" stroke="#000000" stroke-miterlimit="10" width="131" height="131"/>
			<rect x="1095.4" y="410.8" fill="#111111" stroke="#000000" stroke-miterlimit="10" width="131" height="131"/>
			<rect x="1232.3" y="410.8" fill="#111111" stroke="#000000" stroke-miterlimit="10" width="131" height="131"/>
			<rect x="1369.3" y="410.8" fill="#111111" stroke="#000000" stroke-miterlimit="10" width="131" height="131"/>
			<rect x="1506.2" y="410.8" fill="#111111" stroke="#000000" stroke-miterlimit="10" width="131" height="131"/>
			<rect x="1643.1" y="410.8" fill="#111111" stroke="#000000" stroke-miterlimit="10" width="131" height="131"/>
			<rect x="1780.1" y="410.8" fill="#111111" stroke="#000000" stroke-miterlimit="10" width="131" height="131"/>
			<rect x="1917" y="410.8" fill="#111111" stroke="#000000" stroke-miterlimit="10" width="131" height="131"/>
		</g>
		<g>
			<rect x="0" y="547.7" fill="#111111" stroke="#000000" stroke-miterlimit="10" width="131" height="131"/>
			<rect x="136.9" y="547.7" fill="#111111" stroke="#000000" stroke-miterlimit="10" width="131" height="131"/>
			<rect x="273.9" y="547.7" fill="#111111" stroke="#000000" stroke-miterlimit="10" width="131" height="131"/>
			<rect x="410.8" y="547.7" fill="#111111" stroke="#000000" stroke-miterlimit="10" width="131" height="131"/>
			<rect x="684.6" y="547.7" fill="#111111" stroke="#000000" stroke-miterlimit="10" width="131" height="131"/>
			<rect x="958.5" y="547.7" fill="#111111" stroke="#000000" stroke-miterlimit="10" width="131" height="131"/>
			<rect x="547.7" y="547.7" fill="#111111" stroke="#000000" stroke-miterlimit="10" width="131" height="131"/>
			<rect x="821.6" y="547.7" fill="#111111" stroke="#000000" stroke-miterlimit="10" width="131" height="131"/>
			<rect x="1095.4" y="547.7" fill="#111111" stroke="#000000" stroke-miterlimit="10" width="131" height="131"/>
			<rect x="1232.3" y="547.7" fill="#111111" stroke="#000000" stroke-miterlimit="10" width="131" height="131"/>
			<rect x="1369.3" y="547.7" fill="#111111" stroke="#000000" stroke-miterlimit="10" width="131" height="131"/>
			<rect x="1506.2" y="547.7" fill="#111111" stroke="#000000" stroke-miterlimit="10" width="131" height="131"/>
			<rect x="1643.1" y="547.7" fill="#111111" stroke="#000000" stroke-miterlimit="10" width="131" height="131"/>
			<rect x="1780.1" y="547.7" fill="#111111" stroke="#000000" stroke-miterlimit="10" width="131" height="131"/>
			<rect x="1917" y="547.7" fill="#111111" stroke="#000000" stroke-miterlimit="10" width="131" height="131"/>
		</g>
		<g>
			<rect x="0" y="684.6" fill="#111111" stroke="#000000" stroke-miterlimit="10" width="131" height="131"/>
			<rect x="136.9" y="684.6" fill="#111111" stroke="#000000" stroke-miterlimit="10" width="131" height="131"/>
			<rect x="273.9" y="684.6" fill="#111111" stroke="#000000" stroke-miterlimit="10" width="131" height="131"/>
			<rect x="410.8" y="684.6" fill="#111111" stroke="#000000" stroke-miterlimit="10" width="131" height="131"/>
			<rect x="684.6" y="684.6" fill="#111111" stroke="#000000" stroke-miterlimit="10" width="131" height="131"/>
			<rect x="958.5" y="684.6" fill="#111111" stroke="#000000" stroke-miterlimit="10" width="131" height="131"/>
			<rect x="547.7" y="684.6" fill="#111111" stroke="#000000" stroke-miterlimit="10" width="131" height="131"/>
			<rect x="821.6" y="684.6" fill="#111111" stroke="#000000" stroke-miterlimit="10" width="131" height="131"/>
			<rect x="1095.4" y="684.6" fill="#111111" stroke="#000000" stroke-miterlimit="10" width="131" height="131"/>
			<rect x="1232.3" y="684.6" fill="#111111" stroke="#000000" stroke-miterlimit="10" width="131" height="131"/>
			<rect x="1369.3" y="684.6" fill="#111111" stroke="#000000" stroke-miterlimit="10" width="131" height="131"/>
			<rect x="1506.2" y="684.6" fill="#111111" stroke="#000000" stroke-miterlimit="10" width="131" height="131"/>
			<rect x="1643.1" y="684.6" fill="#111111" stroke="#000000" stroke-miterlimit="10" width="131" height="131"/>
			<rect x="1780.1" y="684.6" fill="#111111" stroke="#000000" stroke-miterlimit="10" width="131" height="131"/>
			<rect x="1917" y="684.6" fill="#111111" stroke="#000000" stroke-miterlimit="10" width="131" height="131"/>
		</g>
		<g>
			<rect x="0" y="821.6" fill="#111111" stroke="#000000" stroke-miterlimit="10" width="131" height="131"/>
			<rect x="136.9" y="821.6" fill="#111111" stroke="#000000" stroke-miterlimit="10" width="131" height="131"/>
			<rect x="273.9" y="821.6" fill="#111111" stroke="#000000" stroke-miterlimit="10" width="131" height="131"/>
			<rect x="410.8" y="821.6" fill="#111111" stroke="#000000" stroke-miterlimit="10" width="131" height="131"/>
			<rect x="684.6" y="821.6" fill="#111111" stroke="#000000" stroke-miterlimit="10" width="131" height="131"/>
			<rect x="958.5" y="821.6" fill="#111111" stroke="#000000" stroke-miterlimit="10" width="131" height="131"/>
			<rect x="547.7" y="821.6" fill="#111111" stroke="#000000" stroke-miterlimit="10" width="131" height="131"/>
			<rect x="821.6" y="821.6" fill="#111111" stroke="#000000" stroke-miterlimit="10" width="131" height="131"/>
			<rect x="1095.4" y="821.6" fill="#111111" stroke="#000000" stroke-miterlimit="10" width="131" height="131"/>
			<rect x="1232.3" y="821.6" fill="#111111" stroke="#000000" stroke-miterlimit="10" width="131" height="131"/>
			<rect x="1369.3" y="821.6" fill="#111111" stroke="#000000" stroke-miterlimit="10" width="131" height="131"/>
			<rect x="1506.2" y="821.6" fill="#111111" stroke="#000000" stroke-miterlimit="10" width="131" height="131"/>
			<rect x="1643.1" y="821.6" fill="#111111" stroke="#000000" stroke-miterlimit="10" width="131" height="131"/>
			<rect x="1780.1" y="821.6" fill="#111111" stroke="#000000" stroke-miterlimit="10" width="131" height="131"/>
			<rect x="1917" y="821.6" fill="#111111" stroke="#000000" stroke-miterlimit="10" width="131" height="131"/>
		</g>
		<g>
			<rect x="0" y="958.5" fill="#111111" stroke="#000000" stroke-miterlimit="10" width="131" height="131"/>
			<rect x="136.9" y="958.5" fill="#111111" stroke="#000000" stroke-miterlimit="10" width="131" height="131"/>
			<rect x="273.9" y="958.5" fill="#111111" stroke="#000000" stroke-miterlimit="10" width="131" height="131"/>
			<rect x="410.8" y="958.5" fill="#111111" stroke="#000000" stroke-miterlimit="10" width="131" height="131"/>
			<rect x="684.6" y="958.5" fill="#111111" stroke="#000000" stroke-miterlimit="10" width="131" height="131"/>
			<rect x="958.5" y="958.5" fill="#111111" stroke="#000000" stroke-miterlimit="10" width="131" height="131"/>
			<rect x="547.7" y="958.5" fill="#111111" stroke="#000000" stroke-miterlimit="10" width="131" height="131"/>
			<rect x="821.6" y="958.5" fill="#111111" stroke="#000000" stroke-miterlimit="10" width="131" height="131"/>
			<rect x="1095.4" y="958.5" fill="#111111" stroke="#000000" stroke-miterlimit="10" width="131" height="131"/>
			<rect x="1232.3" y="958.5" fill="#111111" stroke="#000000" stroke-miterlimit="10" width="131" height="131"/>
			<rect x="1369.3" y="958.5" fill="#111111" stroke="#000000" stroke-miterlimit="10" width="131" height="131"/>
			<rect x="1506.2" y="958.5" fill="#111111" stroke="#000000" stroke-miterlimit="10" width="131" height="131"/>
			<rect x="1643.1" y="958.5" fill="#111111" stroke="#000000" stroke-miterlimit="10" width="131" height="131"/>
			<rect x="1780.1" y="958.5" fill="#111111" stroke="#000000" stroke-miterlimit="10" width="131" height="131"/>
			<rect x="1917" y="958.5" fill="#111111" stroke="#000000" stroke-miterlimit="10" width="131" height="131"/>
		</g>
		<g>
			<rect x="0" y="1095.4" fill="#111111" stroke="#000000" stroke-miterlimit="10" width="131" height="131"/>
			<rect x="136.9" y="1095.4" fill="#111111" stroke="#000000" stroke-miterlimit="10" width="131" height="131"/>
			<rect x="273.9" y="1095.4" fill="#111111" stroke="#000000" stroke-miterlimit="10" width="131" height="131"/>
			<rect x="410.8" y="1095.4" fill="#111111" stroke="#000000" stroke-miterlimit="10" width="131" height="131"/>
			<rect x="684.6" y="1095.4" fill="#111111" stroke="#000000" stroke-miterlimit="10" width="131" height="131"/>
			<rect x="958.5" y="1095.4" fill="#111111" stroke="#000000" stroke-miterlimit="10" width="131" height="131"/>
			<rect x="547.7" y="1095.4" fill="#111111" stroke="#000000" stroke-miterlimit="10" width="131" height="131"/>
			<rect x="821.6" y="1095.4" fill="#111111" stroke="#000000" stroke-miterlimit="10" width="131" height="131"/>
			<rect x="1095.4" y="1095.4" fill="#111111" stroke="#000000" stroke-miterlimit="10" width="131" height="131"/>
			<rect x="1232.3" y="1095.4" fill="#111111" stroke="#000000" stroke-miterlimit="10" width="131" height="131"/>
			<rect x="1369.3" y="1095.4" fill="#111111" stroke="#000000" stroke-miterlimit="10" width="131" height="131"/>
			<rect x="1506.2" y="1095.4" fill="#111111" stroke="#000000" stroke-miterlimit="10" width="131" height="131"/>
			<rect x="1643.1" y="1095.4" fill="#111111" stroke="#000000" stroke-miterlimit="10" width="131" height="131"/>
			<rect x="1780.1" y="1095.4" fill="#111111" stroke="#000000" stroke-miterlimit="10" width="131" height="131"/>
			<rect x="1917" y="1095.4" fill="#111111" stroke="#000000" stroke-miterlimit="10" width="131" height="131"/>
		</g>
		<g>
			<rect x="0" y="1232.3" fill="#111111" stroke="#000000" stroke-miterlimit="10" width="131" height="131"/>
			<rect x="136.9" y="1232.3" fill="#111111" stroke="#000000" stroke-miterlimit="10" width="131" height="131"/>
			<rect x="273.9" y="1232.3" fill="#111111" stroke="#000000" stroke-miterlimit="10" width="131" height="131"/>
			<rect x="410.8" y="1232.3" fill="#111111" stroke="#000000" stroke-miterlimit="10" width="131" height="131"/>
			<rect x="684.6" y="1232.3" fill="#111111" stroke="#000000" stroke-miterlimit="10" width="131" height="131"/>
			<rect x="958.5" y="1232.3" fill="#111111" stroke="#000000" stroke-miterlimit="10" width="131" height="131"/>
			<rect x="547.7" y="1232.3" fill="#111111" stroke="#000000" stroke-miterlimit="10" width="131" height="131"/>
			<rect x="821.6" y="1232.3" fill="#111111" stroke="#000000" stroke-miterlimit="10" width="131" height="131"/>
			<rect x="1095.4" y="1232.3" fill="#111111" stroke="#000000" stroke-miterlimit="10" width="131" height="131"/>
			<rect x="1232.3" y="1232.3" fill="#111111" stroke="#000000" stroke-miterlimit="10" width="131" height="131"/>
			<rect x="1369.3" y="1232.3" fill="#111111" stroke="#000000" stroke-miterlimit="10" width="131" height="131"/>
			<rect x="1506.2" y="1232.3" fill="#111111" stroke="#000000" stroke-miterlimit="10" width="131" height="131"/>
			<rect x="1643.1" y="1232.3" fill="#111111" stroke="#000000" stroke-miterlimit="10" width="131" height="131"/>
			<rect x="1780.1" y="1232.3" fill="#111111" stroke="#000000" stroke-miterlimit="10" width="131" height="131"/>
			<rect x="1917" y="1232.3" fill="#111111" stroke="#000000" stroke-miterlimit="10" width="131" height="131"/>
		</g>
		<g>
			<rect x="0" y="1369.3" fill="#111111" stroke="#000000" stroke-miterlimit="10" width="131" height="131"/>
			<rect x="136.9" y="1369.3" fill="#111111" stroke="#000000" stroke-miterlimit="10" width="131" height="131"/>
			<rect x="273.9" y="1369.3" fill="#111111" stroke="#000000" stroke-miterlimit="10" width="131" height="131"/>
			<rect x="410.8" y="1369.3" fill="#111111" stroke="#000000" stroke-miterlimit="10" width="131" height="131"/>
			<rect x="684.6" y="1369.3" fill="#111111" stroke="#000000" stroke-miterlimit="10" width="131" height="131"/>
			<rect x="958.5" y="1369.3" fill="#111111" stroke="#000000" stroke-miterlimit="10" width="131" height="131"/>
			<rect x="547.7" y="1369.3" fill="#111111" stroke="#000000" stroke-miterlimit="10" width="131" height="131"/>
			<rect x="821.6" y="1369.3" fill="#111111" stroke="#000000" stroke-miterlimit="10" width="131" height="131"/>
			<rect x="1095.4" y="1369.3" fill="#111111" stroke="#000000" stroke-miterlimit="10" width="131" height="131"/>
			<rect x="1232.3" y="1369.3" fill="#111111" stroke="#000000" stroke-miterlimit="10" width="131" height="131"/>
			<rect x="1369.3" y="1369.3" fill="#111111" stroke="#000000" stroke-miterlimit="10" width="131" height="131"/>
			<rect x="1506.2" y="1369.3" fill="#111111" stroke="#000000" stroke-miterlimit="10" width="131" height="131"/>
			<rect x="1643.1" y="1369.3" fill="#111111" stroke="#000000" stroke-miterlimit="10" width="131" height="131"/>
			<rect x="1780.1" y="1369.3" fill="#111111" stroke="#000000" stroke-miterlimit="10" width="131" height="131"/>
			<rect x="1917" y="1369.3" fill="#111111" stroke="#000000" stroke-miterlimit="10" width="131" height="131"/>
		</g>
		<g>
			<rect x="0" y="1506.2" fill="#111111" stroke="#000000" stroke-miterlimit="10" width="131" height="131"/>
			<rect x="136.9" y="1506.2" fill="#111111" stroke="#000000" stroke-miterlimit="10" width="131" height="131"/>
			<rect x="273.9" y="1506.2" fill="#111111" stroke="#000000" stroke-miterlimit="10" width="131" height="131"/>
			<rect x="410.8" y="1506.2" fill="#111111" stroke="#000000" stroke-miterlimit="10" width="131" height="131"/>
			<rect x="684.6" y="1506.2" fill="#111111" stroke="#000000" stroke-miterlimit="10" width="131" height="131"/>
			<rect x="958.5" y="1506.2" fill="#111111" stroke="#000000" stroke-miterlimit="10" width="131" height="131"/>
			<rect x="547.7" y="1506.2" fill="#111111" stroke="#000000" stroke-miterlimit="10" width="131" height="131"/>
			<rect x="821.6" y="1506.2" fill="#111111" stroke="#000000" stroke-miterlimit="10" width="131" height="131"/>
			<rect x="1095.4" y="1506.2" fill="#111111" stroke="#000000" stroke-miterlimit="10" width="131" height="131"/>
			<rect x="1232.3" y="1506.2" fill="#111111" stroke="#000000" stroke-miterlimit="10" width="131" height="131"/>
			<rect x="1369.3" y="1506.2" fill="#111111" stroke="#000000" stroke-miterlimit="10" width="131" height="131"/>
			<rect x="1506.2" y="1506.2" fill="#111111" stroke="#000000" stroke-miterlimit="10" width="131" height="131"/>
			<rect x="1643.1" y="1506.2" fill="#111111" stroke="#000000" stroke-miterlimit="10" width="131" height="131"/>
			<rect x="1780.1" y="1506.2" fill="#111111" stroke="#000000" stroke-miterlimit="10" width="131" height="131"/>
			<rect x="1917" y="1506.2" fill="#111111" stroke="#000000" stroke-miterlimit="10" width="131" height="131"/>
		</g>
		<g>
			<rect x="0" y="1643.1" fill="#111111" stroke="#000000" stroke-miterlimit="10" width="131" height="131"/>
			<rect x="136.9" y="1643.1" fill="#111111" stroke="#000000" stroke-miterlimit="10" width="131" height="131"/>
			<rect x="273.9" y="1643.1" fill="#111111" stroke="#000000" stroke-miterlimit="10" width="131" height="131"/>
			<rect x="410.8" y="1643.1" fill="#111111" stroke="#000000" stroke-miterlimit="10" width="131" height="131"/>
			<rect x="684.6" y="1643.1" fill="#111111" stroke="#000000" stroke-miterlimit="10" width="131" height="131"/>
			<rect x="958.5" y="1643.1" fill="#111111" stroke="#000000" stroke-miterlimit="10" width="131" height="131"/>
			<rect x="547.7" y="1643.1" fill="#111111" stroke="#000000" stroke-miterlimit="10" width="131" height="131"/>
			<rect x="821.6" y="1643.1" fill="#111111" stroke="#000000" stroke-miterlimit="10" width="131" height="131"/>
			<rect x="1095.4" y="1643.1" fill="#111111" stroke="#000000" stroke-miterlimit="10" width="131" height="131"/>
			<rect x="1232.3" y="1643.1" fill="#111111" stroke="#000000" stroke-miterlimit="10" width="131" height="131"/>
			<rect x="1369.3" y="1643.1" fill="#111111" stroke="#000000" stroke-miterlimit="10" width="131" height="131"/>
			<rect x="1506.2" y="1643.1" fill="#111111" stroke="#000000" stroke-miterlimit="10" width="131" height="131"/>
			<rect x="1643.1" y="1643.1" fill="#111111" stroke="#000000" stroke-miterlimit="10" width="131" height="131"/>
			<rect x="1780.1" y="1643.1" fill="#111111" stroke="#000000" stroke-miterlimit="10" width="131" height="131"/>
			<rect x="1917" y="1643.1" fill="#111111" stroke="#000000" stroke-miterlimit="10" width="131" height="131"/>
		</g>
		<g>
			<rect x="0" y="1780.1" fill="#111111" stroke="#000000" stroke-miterlimit="10" width="131" height="131"/>
			<rect x="136.9" y="1780.1" fill="#111111" stroke="#000000" stroke-miterlimit="10" width="131" height="131"/>
			<rect x="273.9" y="1780.1" fill="#111111" stroke="#000000" stroke-miterlimit="10" width="131" height="131"/>
			<rect x="410.8" y="1780.1" fill="#111111" stroke="#000000" stroke-miterlimit="10" width="131" height="131"/>
			<rect x="684.6" y="1780.1" fill="#111111" stroke="#000000" stroke-miterlimit="10" width="131" height="131"/>
			<rect x="958.5" y="1780.1" fill="#111111" stroke="#000000" stroke-miterlimit="10" width="131" height="131"/>
			<rect x="547.7" y="1780.1" fill="#111111" stroke="#000000" stroke-miterlimit="10" width="131" height="131"/>
			<rect x="821.6" y="1780.1" fill="#111111" stroke="#000000" stroke-miterlimit="10" width="131" height="131"/>
			<rect x="1095.4" y="1780.1" fill="#111111" stroke="#000000" stroke-miterlimit="10" width="131" height="131"/>
			<rect x="1232.3" y="1780.1" fill="#111111" stroke="#000000" stroke-miterlimit="10" width="131" height="131"/>
			<rect x="1369.3" y="1780.1" fill="#111111" stroke="#000000" stroke-miterlimit="10" width="131" height="131"/>
			<rect x="1506.2" y="1780.1" fill="#111111" stroke="#000000" stroke-miterlimit="10" width="131" height="131"/>
			<rect x="1643.1" y="1780.1" fill="#111111" stroke="#000000" stroke-miterlimit="10" width="131" height="131"/>
			<rect x="1780.1" y="1780.1" fill="#111111" stroke="#000000" stroke-miterlimit="10" width="131" height="131"/>
			<rect x="1917" y="1780.1" fill="#111111" stroke="#000000" stroke-miterlimit="10" width="131" height="131"/>
		</g>
		<g>
			<rect x="0" y="1917" fill="#111111" stroke="#000000" stroke-miterlimit="10" width="131" height="131"/>
			<rect x="136.9" y="1917" fill="#111111" stroke="#000000" stroke-miterlimit="10" width="131" height="131"/>
			<rect x="273.9" y="1917" fill="#111111" stroke="#000000" stroke-miterlimit="10" width="131" height="131"/>
			<rect x="410.8" y="1917" fill="#111111" stroke="#000000" stroke-miterlimit="10" width="131" height="131"/>
			<rect x="684.6" y="1917" fill="#111111" stroke="#000000" stroke-miterlimit="10" width="131" height="131"/>
			<rect x="958.5" y="1917" fill="#111111" stroke="#000000" stroke-miterlimit="10" width="131" height="131"/>
			<rect x="547.7" y="1917" fill="#111111" stroke="#000000" stroke-miterlimit="10" width="131" height="131"/>
			<rect x="821.6" y="1917" fill="#111111" stroke="#000000" stroke-miterlimit="10" width="131" height="131"/>
			<rect x="1095.4" y="1917" fill="#111111" stroke="#000000" stroke-miterlimit="10" width="131" height="131"/>
			<rect x="1232.3" y="1917" fill="#111111" stroke="#000000" stroke-miterlimit="10" width="131" height="131"/>
			<rect x="1369.3" y="1917" fill="#111111" stroke="#000000" stroke-miterlimit="10" width="131" height="131"/>
			<rect x="1506.2" y="1917" fill="#111111" stroke="#000000" stroke-miterlimit="10" width="131" height="131"/>
			<rect x="1643.1" y="1917" fill="#111111" stroke="#000000" stroke-miterlimit="10" width="131" height="131"/>
			<rect x="1780.1" y="1917" fill="#111111" stroke="#000000" stroke-miterlimit="10" width="131" height="131"/>
			<rect x="1917" y="1917" fill="#111111" stroke="#000000" stroke-miterlimit="10" width="131" height="131"/>
		</g>
	</g>
	<g>
	</g>
	<g>
	</g>
	<g>
	</g>
	<g>
	</g>
	<g>
	</g>
	<g>
	</g>
	<g>
	</g>
	<g>
	</g>
	<g>
	</g>
	<g>
	</g>
	<g>
	</g>
	<g>
	</g>
	<g>
	</g>
	<g>
	</g>
	<g>
	</g>
</g>
</svg>
